<svg width="431" height="134" viewBox="0 0 431 134" fill="none" xmlns="http://www.w3.org/2000/svg">
<g clip-path="url(#clip0_277_658)">
<path d="M101.013 14.2965V11.7568H118.282V14.1348C117.302 14.4677 116.331 14.8292 115.34 15.1336C112.77 15.9231 112.18 18.0633 111.856 20.3176C111.666 21.6398 111.628 23 111.628 24.3317C111.628 45.1915 111.656 66.0514 111.675 86.9112C111.675 87.187 111.675 87.4629 111.675 87.7102C108.867 88.3856 108.286 88.1287 106.906 85.9124C103.878 81.0613 100.794 76.2387 97.757 71.3876C93.6253 64.7863 89.5222 58.1564 85.3905 51.555C82.9248 47.6076 80.402 43.6886 77.9363 39.7411C75.4135 35.7176 72.9288 31.6749 70.4155 27.6514C70.0537 27.0711 69.6253 26.5385 68.9494 26.0629V45.2201C68.8542 45.2486 68.759 45.2771 68.6638 45.3057C67.4452 43.603 66.1791 41.9384 65.0367 40.1882C64.7701 39.7792 64.8939 39.1038 64.8939 38.5521C64.8558 32.7118 64.97 26.8714 64.7511 21.031C64.5797 16.3226 62.6376 15.6757 58.7344 14.5533C58.3441 14.4392 57.9347 14.3916 57.4683 14.306V11.8139C57.9347 11.7853 58.3822 11.7188 58.8296 11.7188C62.8756 11.7188 66.9121 11.7473 70.9581 11.7283C71.8435 11.7283 72.4242 11.8995 72.9573 12.7746C77.2509 19.7754 81.611 26.7192 85.9807 33.6725C88.5035 37.6961 91.1025 41.6721 93.6158 45.7052C97.1572 51.3743 100.651 57.072 104.193 62.7412C105.183 64.3202 106.258 65.8421 107.582 67.2784C107.601 66.7933 107.648 66.3082 107.648 65.8136C107.648 51.5836 107.667 37.3536 107.629 23.1236C107.629 21.7064 107.401 20.27 107.125 18.8623C106.601 16.1989 104.649 15.048 102.193 14.4963C101.832 14.4202 101.47 14.3726 101.013 14.2965ZM107.287 79.1018C107.658 77.1614 107.991 75.3541 106.534 73.7846C105.735 72.919 105.183 71.8156 104.545 70.7978C101.984 66.6887 99.4515 62.57 96.8716 58.4703C94.4726 54.6369 92.0069 50.8416 89.6174 47.0083C86.0759 41.3391 82.5726 35.651 79.0406 29.9818C76.3369 25.6348 73.6142 21.3069 70.9296 16.9504C69.9109 15.2953 69.711 15.1621 67.5309 15.7043C80.8018 36.878 94.0442 57.9852 107.277 79.1018H107.287Z" fill="white"/>
<path d="M58.2488 87.9478H54.7264C54.6979 87.3865 54.6598 86.8634 54.6408 86.3307C54.4789 79.3774 54.3456 72.4337 54.1457 65.4804C54.0029 60.4866 52.7748 55.6925 51.3278 50.946C49.3381 44.4208 51.0231 38.8373 55.707 34.0337C56.2496 33.4725 56.8018 32.9303 57.3635 32.3881C57.4872 32.2645 57.6681 32.2074 57.9156 32.0742C59.8672 37.439 63.7419 41.5006 66.9121 45.9998C70.4916 51.0792 72.805 56.7198 74.7851 62.5697C76.0513 66.3174 77.346 70.0747 79.8498 73.2993C81.2873 75.1351 84.9715 76.4573 87.0659 74.241C87.3135 73.9841 88.0084 73.889 88.3702 74.0412C93.4729 76.1148 98.252 78.7592 102.393 82.4308C102.945 82.9159 103.336 83.6864 103.574 84.3998C104.097 86.0168 103.459 87.2058 101.793 87.5007C99.699 87.8621 97.5665 88.157 95.434 88.1951C90.6074 88.2807 85.7712 88.3948 80.9636 88.0999C76.6701 87.8431 74.0711 84.9229 72.5479 81.1942C71.1389 77.7319 70.1679 74.0983 68.8732 70.5883C67.7117 67.4589 66.1124 64.5482 63.7038 62.1607C62.371 60.848 60.1909 61.0954 59.6007 62.8551C58.9248 64.8811 58.4392 67.0499 58.3726 69.1806C58.1917 74.8783 58.2679 80.5855 58.2393 86.2832C58.2393 86.7873 58.2393 87.2914 58.2393 87.9478H58.2488Z" fill="white"/>
<path d="M74.8517 87.9482H60.0386V85.3039C60.8668 84.8283 61.7903 84.4288 62.5614 83.839C64.2464 82.5454 64.6843 80.6335 64.751 78.655C64.8557 75.3733 64.8652 72.0822 64.9223 68.8005C64.9223 68.344 64.9223 67.8969 65.2365 67.3262C65.7982 68.382 66.3408 69.4569 66.9406 70.4937C68.797 73.7182 68.8541 77.3709 69.4634 80.8903C69.7585 82.5644 70.6439 83.8485 72.1195 84.8758C73.1667 85.6083 73.8807 86.8163 74.8612 87.9387L74.8517 87.9482Z" fill="white"/>
<path d="M107.286 79.1017C94.0533 57.985 80.8109 36.8779 67.54 15.7042C69.7201 15.1525 69.92 15.2856 70.9387 16.9502C73.6138 21.3067 76.3461 25.6347 79.0497 29.9817C82.5817 35.6604 86.085 41.3485 89.6265 47.0082C92.0255 50.8415 94.4817 54.6368 96.8807 58.4702C99.4511 62.5698 101.983 66.6885 104.554 70.7977C105.192 71.8155 105.744 72.9189 106.544 73.7845C108 75.354 107.667 77.1613 107.296 79.1017H107.286Z" fill="white"/>
<path d="M156.619 42.5096C154.915 42.1006 152.973 41.9008 150.793 41.9008C148.356 41.9008 146.328 42.3289 144.7 43.1944C143.072 44.06 142.263 45.1254 142.263 46.3905C142.263 47.7602 143.053 48.9492 144.624 49.967C146.195 50.9848 148.708 52.2213 152.164 53.6957C155.258 55.0179 157.79 56.1974 159.742 57.2342C161.693 58.271 163.369 59.5836 164.768 61.1531C166.168 62.7226 166.862 64.5489 166.862 66.632C166.862 70.7412 165.273 73.9087 162.102 76.144C158.932 78.3794 154.42 79.4923 148.584 79.4923C146.042 79.4923 143.443 79.0262 140.778 78.0845C138.112 77.1428 135.789 75.8872 133.809 74.3177L135.941 71.1978C137.817 72.7197 139.873 73.9087 142.11 74.7743C144.348 75.6399 146.499 76.0679 148.584 76.0679C151.021 76.0679 152.935 75.6019 154.334 74.6602C155.734 73.7185 156.429 72.4439 156.429 70.8173C156.429 68.991 155.591 67.4786 153.915 66.2896C152.24 65.1006 149.65 63.7689 146.147 62.2946C143.3 61.077 141.016 59.9736 139.293 58.9844C137.569 57.9951 136.094 56.7491 134.875 55.2557C133.657 53.7623 133.047 51.974 133.047 49.8909C133.047 46.1907 134.561 43.3466 137.579 41.3681C140.597 39.3896 144.928 38.4004 150.564 38.4004C152.897 38.4004 155.162 38.6572 157.342 39.1614C159.523 39.6655 161.408 40.3789 162.978 41.292L161.607 44.412C159.98 43.5464 158.323 42.9186 156.619 42.5096Z" fill="white"/>
<path d="M174.935 22.2678C176.106 21.0978 177.553 20.5176 179.276 20.5176C181 20.5176 182.447 21.0978 183.618 22.2678C184.789 23.4378 185.369 24.8836 185.369 26.6053C185.369 28.3269 184.789 29.7728 183.618 30.9427C182.447 32.1127 181 32.6929 179.276 32.6929C177.553 32.6929 176.106 32.1127 174.935 30.9427C173.764 29.7728 173.184 28.3269 173.184 26.6053C173.184 24.8836 173.764 23.4378 174.935 22.2678ZM185.902 78.3506H176.306C175.345 78.3506 174.678 78.1508 174.326 77.7418C173.974 77.3328 173.793 76.6004 173.793 75.535V38.7806H185.902V78.3506Z" fill="white"/>
<path d="M198.317 43.651C202.02 40.1506 207.275 38.4004 214.082 38.4004C220.889 38.4004 226.144 40.1791 229.847 43.7271C233.55 47.2751 235.407 52.3545 235.407 58.9463V59.7834H204.942C204.99 62.5704 205.161 65.1862 205.438 67.6213C205.714 70.0564 206.056 71.6068 206.466 72.2631C207.275 73.6804 208.322 74.6887 209.588 75.2689C210.854 75.8492 212.53 76.144 214.615 76.144C218.071 76.144 221.127 75.6494 223.792 74.6602C226.458 73.6709 228.828 72.1585 230.913 70.1325L233.426 72.7197C231.094 75.1072 228.39 76.8289 225.315 77.8943C222.24 78.9596 218.499 79.4923 214.082 79.4923C207.075 79.4923 201.772 77.7326 198.164 74.2036C194.556 70.6746 192.757 65.4621 192.757 58.5659C192.757 52.1262 194.613 47.1514 198.317 43.651ZM221.012 45.211C219.594 42.9566 217.28 41.8247 214.082 41.8247C210.883 41.8247 208.436 42.9566 207.037 45.211C205.637 47.4653 204.942 51.2131 204.942 56.4352H223.221C223.173 51.2131 222.431 47.4653 221.012 45.211Z" fill="white"/>
<path d="M254.37 47.4558V78.3508H245.231C244.06 78.3508 243.279 78.1606 242.87 77.7801C242.461 77.3996 242.261 76.6482 242.261 75.5353V38.7809H251.019C251.828 38.7809 252.495 38.9806 252.999 39.3896C253.504 39.7987 253.809 40.3789 253.913 41.1399C255.284 40.2743 256.741 39.6084 258.292 39.1233C259.844 38.6382 261.348 38.4004 262.824 38.4004C269.022 38.4004 273.724 39.5894 276.952 41.9769C280.179 44.3644 281.788 47.8648 281.788 52.4782V78.3508H272.572C271.402 78.3508 270.621 78.1606 270.212 77.7801C269.802 77.3996 269.602 76.6482 269.602 75.5353V55.1415C269.602 46.2668 267.089 41.8247 262.062 41.8247C259.425 41.8247 256.807 42.7664 254.218 44.6403C254.323 46.2668 254.37 47.199 254.37 47.4558Z" fill="white"/>
<path d="M304.484 47.4558V78.3508H295.345C294.174 78.3508 293.393 78.1606 292.984 77.7801C292.574 77.3996 292.375 76.6482 292.375 75.5353V38.7809H301.133C301.942 38.7809 302.609 38.9806 303.113 39.3896C303.618 39.7987 303.922 40.3789 304.027 41.1399C305.398 40.2743 306.854 39.6084 308.406 39.1233C309.958 38.6382 311.462 38.4004 312.938 38.4004C319.135 38.4004 323.838 39.5894 327.065 41.9769C330.293 44.3644 331.902 47.8648 331.902 52.4782V78.3508H322.686C321.515 78.3508 320.735 78.1606 320.325 77.7801C319.916 77.3996 319.716 76.6482 319.716 75.5353V55.1415C319.716 46.2668 317.203 41.8247 312.176 41.8247C309.539 41.8247 306.921 42.7664 304.332 44.6403C304.436 46.2668 304.484 47.199 304.484 47.4558Z" fill="white"/>
<path d="M369.525 77.666C369.02 77.2094 368.715 76.6292 368.611 75.9158C367.497 77.0287 365.945 77.9038 363.965 78.5411C361.985 79.1784 359.881 79.4923 357.644 79.4923C353.836 79.4923 350.437 78.893 347.438 77.704C344.439 76.515 342.107 74.8504 340.432 72.7197C338.756 70.589 337.918 68.1825 337.918 65.4906C337.918 62.7987 338.794 60.4397 340.546 58.4137C342.297 56.3876 344.773 54.8086 347.971 53.6957C351.17 52.5828 354.902 52.0216 359.167 52.0216C362.318 52.0216 365.364 52.6589 368.306 53.924V50.4236C368.306 47.7887 367.421 45.6961 365.641 44.1456C363.86 42.5952 361.452 41.8247 358.405 41.8247C356.378 41.8247 354.445 42.0815 352.617 42.5857C350.789 43.0898 348.914 43.9078 346.981 45.0207L345.839 41.7486C349.752 39.5133 353.94 38.4004 358.405 38.4004C363.737 38.4004 368.011 39.0757 371.238 40.4169C374.466 41.7581 376.807 43.9078 378.283 46.8471C379.759 49.7863 380.492 53.6957 380.492 58.5659V78.3508H371.353C370.639 78.3508 370.029 78.1225 369.525 77.666ZM352.16 73.6329C353.579 75.307 355.921 76.144 359.167 76.144C360.842 76.144 362.48 75.8397 364.079 75.2309C365.679 74.6221 367.135 73.7565 368.458 72.6436C368.354 66.8603 368.306 61.8094 368.306 57.5005C365.517 56.1308 362.47 55.4459 359.167 55.4459C355.863 55.4459 353.645 56.2449 352.198 57.8429C350.751 59.441 350.028 61.9616 350.028 65.4145C350.028 69.2193 350.742 71.9588 352.16 73.6329Z" fill="white"/>
</g>
<path d="M100.812 117.734H103.079V119.105H100.812V123.043H99.124V113.744H100.812V117.734ZM95.7139 123.342C96.7861 123.342 97.7119 123.462 98.4912 123.702C99.2764 123.942 99.8799 124.294 100.302 124.757C100.724 125.214 100.935 125.762 100.935 126.4C100.935 127.039 100.724 127.587 100.302 128.044C99.8799 128.507 99.2764 128.858 98.4912 129.099C97.7061 129.345 96.7803 129.465 95.7139 129.459C94.6357 129.465 93.6982 129.345 92.9014 129.099C92.1045 128.858 91.4922 128.507 91.0645 128.044C90.6367 127.587 90.4229 127.039 90.4229 126.4C90.4229 125.762 90.6367 125.214 91.0645 124.757C91.4922 124.294 92.1016 123.942 92.8926 123.702C93.6895 123.462 94.6299 123.342 95.7139 123.342ZM95.7139 124.695C94.958 124.689 94.3047 124.754 93.7539 124.889C93.209 125.018 92.79 125.211 92.4971 125.469C92.21 125.727 92.0693 126.037 92.0752 126.4C92.0693 126.758 92.21 127.068 92.4971 127.332C92.79 127.59 93.209 127.786 93.7539 127.921C94.2988 128.056 94.9521 128.123 95.7139 128.123C96.458 128.123 97.0996 128.056 97.6387 127.921C98.1777 127.786 98.5938 127.59 98.8867 127.332C99.1797 127.068 99.3291 126.758 99.335 126.4C99.3291 126.043 99.1797 125.735 98.8867 125.478C98.5938 125.214 98.1748 125.018 97.6299 124.889C97.0908 124.754 96.4521 124.689 95.7139 124.695ZM96.1182 116.258H90.7393V120.547C92.3564 120.541 93.6602 120.503 94.6504 120.433C95.6406 120.362 96.6162 120.23 97.5771 120.037L97.7354 121.391C96.7334 121.602 95.708 121.739 94.6592 121.804C93.6104 121.868 92.1689 121.9 90.335 121.9H89.0869V114.904H96.1182V116.258ZM117.036 125.293H115.366V113.762H117.036V125.293ZM117.511 129.16H106.735V124.203H108.423V127.807H117.511V129.16ZM109.706 116.188C109.7 116.955 109.853 117.688 110.163 118.385C110.479 119.082 110.931 119.697 111.517 120.23C112.103 120.764 112.794 121.168 113.591 121.443L112.729 122.779C111.827 122.445 111.045 121.959 110.383 121.32C109.727 120.676 109.22 119.92 108.862 119.053C108.511 119.979 107.998 120.79 107.324 121.487C106.656 122.185 105.868 122.709 104.96 123.061L104.063 121.742C104.872 121.443 105.572 121.01 106.164 120.441C106.762 119.873 107.216 119.22 107.526 118.481C107.843 117.743 108.001 116.979 108.001 116.188V114.623H109.706V116.188ZM124.665 114.869C125.485 114.863 126.221 115.019 126.871 115.335C127.521 115.651 128.028 116.097 128.392 116.671C128.761 117.239 128.948 117.887 128.954 118.613C128.948 119.34 128.761 119.99 128.392 120.564C128.028 121.133 127.521 121.578 126.871 121.9C126.221 122.217 125.485 122.375 124.665 122.375C123.845 122.375 123.106 122.217 122.45 121.9C121.8 121.578 121.29 121.133 120.921 120.564C120.552 119.99 120.37 119.34 120.376 118.613C120.37 117.887 120.552 117.239 120.921 116.671C121.29 116.097 121.8 115.651 122.45 115.335C123.106 115.019 123.845 114.863 124.665 114.869ZM124.665 116.311C124.155 116.311 123.698 116.407 123.294 116.601C122.896 116.788 122.582 117.058 122.354 117.409C122.131 117.755 122.022 118.156 122.028 118.613C122.022 119.07 122.131 119.475 122.354 119.826C122.582 120.172 122.896 120.441 123.294 120.635C123.698 120.822 124.155 120.916 124.665 120.916C125.175 120.916 125.629 120.822 126.027 120.635C126.432 120.441 126.748 120.172 126.977 119.826C127.205 119.475 127.319 119.07 127.319 118.613C127.319 118.156 127.205 117.755 126.977 117.409C126.748 117.058 126.432 116.788 126.027 116.601C125.629 116.407 125.175 116.311 124.665 116.311ZM132.558 129.529H130.888V113.744H132.558V129.529ZM119.62 124.748C121.565 124.748 123.382 124.716 125.069 124.651C126.763 124.581 128.374 124.438 129.903 124.221L130.026 125.434C128.456 125.738 126.859 125.932 125.236 126.014C123.619 126.096 121.817 126.137 119.831 126.137L119.62 124.748ZM153.897 127.525H139.483V126.137H145.829V122.498H141.136V115.01H152.175V122.498H147.481V126.137H153.897V127.525ZM142.753 121.18H150.54V116.346H142.753V121.18ZM169.419 122.973H155.04V121.637H169.419V122.973ZM167.802 120.055H156.833V114.395H167.644V115.73H158.503V118.684H167.802V120.055ZM167.907 129.16H156.851V124.52H158.503V127.789H167.907V129.16ZM188.122 121.76H186.452V118.754H183.183V117.4H186.452V113.744H188.122V121.76ZM183.042 114.447C183.042 116.404 182.415 118.03 181.161 119.325C179.913 120.62 178.126 121.555 175.8 122.129L175.22 120.775C177.042 120.348 178.466 119.706 179.491 118.851C180.522 117.995 181.108 116.984 181.249 115.818H176.063V114.447H183.042ZM188.122 126.418H179.509V128H188.597V129.336H177.856V125.152H186.452V123.746H177.821V122.428H188.122V126.418ZM197.72 114.078C198.868 114.078 199.864 114.198 200.708 114.438C201.558 114.679 202.208 115.027 202.659 115.484C203.116 115.936 203.345 116.475 203.345 117.102C203.345 117.717 203.116 118.247 202.659 118.692C202.208 119.138 201.558 119.48 200.708 119.721C199.864 119.955 198.868 120.072 197.72 120.072C196.577 120.072 195.581 119.955 194.731 119.721C193.888 119.48 193.237 119.138 192.78 118.692C192.323 118.247 192.095 117.717 192.095 117.102C192.095 116.475 192.323 115.936 192.78 115.484C193.237 115.027 193.888 114.679 194.731 114.438C195.581 114.198 196.577 114.078 197.72 114.078ZM197.72 115.396C196.911 115.396 196.214 115.464 195.628 115.599C195.042 115.728 194.591 115.921 194.274 116.179C193.964 116.437 193.812 116.744 193.817 117.102C193.812 117.623 194.154 118.03 194.846 118.323C195.537 118.61 196.495 118.76 197.72 118.771C198.938 118.76 199.894 118.61 200.585 118.323C201.276 118.03 201.622 117.623 201.622 117.102C201.622 116.744 201.464 116.437 201.147 116.179C200.837 115.921 200.389 115.728 199.803 115.599C199.217 115.464 198.522 115.396 197.72 115.396ZM203.151 129.301H192.271V124.045H203.151V129.301ZM193.923 127.947H201.534V125.381H193.923V127.947ZM204.909 122.639H190.548V121.285H204.909V122.639ZM219.147 129.529H217.478V113.744H219.147V129.529ZM210.728 114.922C211.507 114.922 212.204 115.15 212.819 115.607C213.435 116.059 213.915 116.703 214.261 117.541C214.612 118.373 214.788 119.34 214.788 120.441C214.788 121.549 214.612 122.521 214.261 123.359C213.915 124.197 213.435 124.845 212.819 125.302C212.204 125.753 211.507 125.979 210.728 125.979C209.937 125.979 209.233 125.753 208.618 125.302C208.003 124.845 207.52 124.2 207.168 123.368C206.822 122.53 206.649 121.555 206.649 120.441C206.649 119.334 206.822 118.364 207.168 117.532C207.52 116.694 208.003 116.05 208.618 115.599C209.233 115.147 209.937 114.922 210.728 114.922ZM210.728 116.416C210.241 116.416 209.811 116.58 209.436 116.908C209.066 117.236 208.779 117.705 208.574 118.314C208.369 118.918 208.267 119.627 208.267 120.441C208.267 121.262 208.369 121.977 208.574 122.586C208.779 123.195 209.066 123.664 209.436 123.992C209.811 124.32 210.241 124.484 210.728 124.484C211.208 124.484 211.633 124.32 212.002 123.992C212.371 123.664 212.658 123.195 212.863 122.586C213.068 121.977 213.171 121.262 213.171 120.441C213.171 119.627 213.068 118.918 212.863 118.314C212.658 117.705 212.371 117.236 212.002 116.908C211.633 116.58 211.208 116.416 210.728 116.416ZM239.608 129.494H238.009V113.744H239.608V129.494ZM236.444 128.721H234.862V123.641H232.577C232.296 124.432 231.9 125.041 231.391 125.469C230.881 125.896 230.292 126.107 229.624 126.102C228.944 126.107 228.347 125.885 227.831 125.434C227.321 124.982 226.926 124.338 226.645 123.5C226.369 122.656 226.231 121.672 226.231 120.547C226.231 119.422 226.369 118.44 226.645 117.603C226.926 116.765 227.321 116.123 227.831 115.678C228.347 115.227 228.944 115.004 229.624 115.01C230.292 115.004 230.878 115.215 231.382 115.643C231.892 116.064 232.29 116.668 232.577 117.453H234.862V114.043H236.444V128.721ZM229.624 116.574C229.237 116.574 228.903 116.732 228.622 117.049C228.347 117.359 228.133 117.813 227.98 118.411C227.834 119.003 227.761 119.715 227.761 120.547C227.761 121.379 227.834 122.094 227.98 122.691C228.133 123.283 228.347 123.737 228.622 124.054C228.903 124.364 229.237 124.52 229.624 124.52C230.011 124.52 230.345 124.364 230.626 124.054C230.913 123.737 231.133 123.28 231.285 122.683C231.443 122.085 231.522 121.373 231.522 120.547C231.522 119.721 231.443 119.009 231.285 118.411C231.133 117.813 230.913 117.359 230.626 117.049C230.345 116.732 230.011 116.574 229.624 116.574ZM232.92 118.807C233.008 119.34 233.052 119.92 233.052 120.547C233.052 121.168 233.008 121.742 232.92 122.27H234.862V118.807H232.92ZM249.646 114.342C249.646 114.934 249.892 115.487 250.384 116.003C250.882 116.519 251.556 116.955 252.405 117.312C253.255 117.664 254.192 117.898 255.218 118.016L254.638 119.281C253.325 119.123 252.145 118.78 251.096 118.253C250.053 117.726 249.282 117.066 248.784 116.275C248.28 117.066 247.507 117.726 246.464 118.253C245.421 118.78 244.249 119.123 242.948 119.281L242.368 118.016C243.394 117.898 244.331 117.664 245.181 117.312C246.03 116.955 246.701 116.519 247.193 116.003C247.691 115.487 247.94 114.934 247.94 114.342V113.814H249.646V114.342ZM255.974 121.531H249.61V122.938H254.163V126.664H244.987V128.053H254.603V129.336H243.353V125.451H252.511V124.221H243.335V122.938H247.94V121.531H241.612V120.195H255.974V121.531ZM270.212 129.529H268.542V113.744H270.212V129.529ZM261.792 114.922C262.571 114.922 263.269 115.15 263.884 115.607C264.499 116.059 264.979 116.703 265.325 117.541C265.677 118.373 265.853 119.34 265.853 120.441C265.853 121.549 265.677 122.521 265.325 123.359C264.979 124.197 264.499 124.845 263.884 125.302C263.269 125.753 262.571 125.979 261.792 125.979C261.001 125.979 260.298 125.753 259.683 125.302C259.067 124.845 258.584 124.2 258.232 123.368C257.887 122.53 257.714 121.555 257.714 120.441C257.714 119.334 257.887 118.364 258.232 117.532C258.584 116.694 259.067 116.05 259.683 115.599C260.298 115.147 261.001 114.922 261.792 114.922ZM261.792 116.416C261.306 116.416 260.875 116.58 260.5 116.908C260.131 117.236 259.844 117.705 259.639 118.314C259.434 118.918 259.331 119.627 259.331 120.441C259.331 121.262 259.434 121.977 259.639 122.586C259.844 123.195 260.131 123.664 260.5 123.992C260.875 124.32 261.306 124.484 261.792 124.484C262.272 124.484 262.697 124.32 263.066 123.992C263.436 123.664 263.723 123.195 263.928 122.586C264.133 121.977 264.235 121.262 264.235 120.441C264.235 119.627 264.133 118.918 263.928 118.314C263.723 117.705 263.436 117.236 263.066 116.908C262.697 116.58 262.272 116.416 261.792 116.416ZM286.507 121.777H283.185V124.695C284.849 124.613 286.284 124.508 287.491 124.379L287.614 125.609C286.085 125.844 284.518 125.996 282.912 126.066C281.312 126.137 279.481 126.178 277.419 126.189L277.208 124.801C278.872 124.801 280.308 124.783 281.515 124.748V121.777H278.351V115.203H286.437V116.557H280.003V120.406H286.507V121.777ZM290.146 129.529H288.476V113.744H290.146V129.529ZM305.421 119.686H294.575V114.307H296.228V118.35H305.421V119.686ZM307.073 123.008H292.659V121.672H307.073V123.008ZM305.526 129.125H294.452V124.502H296.122V127.754H305.526V129.125ZM320.661 114.834C320.661 115.479 320.91 116.105 321.408 116.715C321.912 117.318 322.586 117.837 323.43 118.271C324.279 118.704 325.196 118.994 326.181 119.141L325.53 120.459C324.698 120.324 323.91 120.096 323.166 119.773C322.422 119.445 321.76 119.044 321.18 118.569C320.605 118.095 320.151 117.567 319.817 116.987C319.489 117.579 319.035 118.115 318.455 118.596C317.875 119.076 317.21 119.478 316.46 119.8C315.716 120.122 314.925 120.354 314.087 120.494L313.454 119.176C314.444 119.023 315.358 118.733 316.196 118.306C317.04 117.872 317.711 117.351 318.209 116.741C318.707 116.132 318.956 115.496 318.956 114.834V114.148H320.661V114.834ZM327.024 123.025H320.767V126.066H319.114V123.025H312.61V121.672H327.024V123.025ZM325.425 129.16H314.403V124.59H316.073V127.807H325.425V129.16ZM340.56 118.402H342.845V119.791H340.56V125.188H338.872V113.744H340.56V118.402ZM336.288 114.939C336.288 116.299 335.992 117.538 335.4 118.657C334.809 119.776 333.956 120.743 332.843 121.558C331.735 122.366 330.411 123.002 328.87 123.465L328.167 122.129C329.392 121.76 330.455 121.288 331.357 120.714C332.266 120.14 332.983 119.48 333.511 118.736C334.044 117.992 334.363 117.189 334.469 116.328H328.835V114.939H336.288ZM341.21 129.16H330.558V124.01H332.245V127.807H341.21V129.16Z" fill="white"/>
<defs>
<clipPath id="clip0_277_658">
<rect width="329.983" height="76.5622" fill="white" transform="translate(50.5088 11.7188)"/>
</clipPath>
</defs>
</svg>
