<svg width="85" height="100" viewBox="0 0 85 100" fill="none" xmlns="http://www.w3.org/2000/svg">
<g clip-path="url(#clip0_89_480)">
<path d="M53.7247 14.2701V12.5443H65.3802V14.156C64.7146 14.3841 64.0637 14.6271 63.3932 14.8354C61.6577 15.3759 61.2633 16.824 61.0414 18.3563C60.9132 19.2539 60.8886 20.1762 60.8886 21.0837C60.8886 35.2516 60.9083 49.4195 60.9181 63.5924C60.9181 63.7759 60.9181 63.9643 60.9181 64.1379C59.0249 64.5991 58.6353 64.4205 57.6986 62.913C55.6524 59.6153 53.5767 56.3423 51.5257 53.0495C48.7351 48.5616 45.9691 44.0638 43.1834 39.5759C41.5169 36.8931 39.8209 34.2301 38.1495 31.5522C36.4485 28.8198 34.7721 26.0725 33.0761 23.3401C32.8345 22.9483 32.5436 22.5863 32.085 22.259V35.2715C32.0209 35.2913 31.9569 35.3111 31.8878 35.331C31.0644 34.1755 30.2115 33.0449 29.4423 31.8547C29.2648 31.582 29.3487 31.1208 29.3487 30.7439C29.324 26.7767 29.398 22.8095 29.255 18.8472C29.1367 15.6487 27.8252 15.2073 25.1923 14.4486C24.9261 14.3742 24.65 14.3395 24.3394 14.28V12.584C24.6598 12.5642 24.9606 12.5195 25.2613 12.5195C27.9879 12.5195 30.7144 12.5344 33.4409 12.5245C34.0375 12.5245 34.427 12.6385 34.7918 13.2336C37.686 17.9844 40.6344 22.7053 43.5779 27.4313C45.2838 30.1637 47.0341 32.8664 48.7301 35.6037C51.1214 39.4519 53.4781 43.3249 55.8694 47.1731C56.535 48.2442 57.2647 49.2757 58.1522 50.2526C58.167 49.9204 58.1965 49.5931 58.1965 49.2608C58.1965 39.5957 58.2064 29.9257 58.1818 20.2605C58.1818 19.2935 58.024 18.3166 57.8416 17.3694C57.4915 15.5594 56.1701 14.7759 54.5135 14.404C54.2719 14.3494 54.0205 14.3197 53.7197 14.2651L53.7247 14.2701ZM57.9599 58.2862C58.2113 56.9671 58.4332 55.7373 57.452 54.6711C56.9097 54.081 56.5399 53.3322 56.111 52.6429C54.3804 49.8559 52.6695 47.0541 50.934 44.2671C49.3119 41.6636 47.6553 39.0899 46.0381 36.4815C43.6469 32.6333 41.2803 28.7702 38.9038 24.9121C37.0796 21.9615 35.2405 19.0208 33.431 16.0603C32.7457 14.9346 32.6126 14.8453 31.1384 15.2172C40.097 29.5984 49.026 43.9398 57.9599 58.2813V58.2862Z" fill="#2F3A50"/>
<path d="M24.8667 64.3009H22.4903C22.4705 63.924 22.4459 63.562 22.436 63.2C22.3275 58.479 22.2388 53.7581 22.1057 49.0371C22.012 45.6451 21.1788 42.392 20.2025 39.1687C18.8565 34.7353 20.0004 30.9466 23.1559 27.6786C23.5207 27.3017 23.8954 26.9298 24.2751 26.5628C24.3589 26.4835 24.4821 26.4438 24.6448 26.3496C25.9662 29.9895 28.5744 32.7517 30.7191 35.8114C33.135 39.2579 34.698 43.0962 36.0292 47.0634C36.8821 49.6123 37.7548 52.1662 39.4509 54.3482C40.4222 55.5979 42.9071 56.4905 44.3172 54.9879C44.4799 54.8143 44.9532 54.7499 45.1948 54.849C48.6412 56.2574 51.8657 58.0526 54.6612 60.5469C55.031 60.8792 55.2973 61.3999 55.455 61.8859C55.81 62.9818 55.3811 63.7951 54.252 63.9935C52.837 64.2414 51.3973 64.4398 49.9625 64.4646C46.7085 64.5191 43.4396 64.5985 40.1954 64.4001C37.3012 64.2216 35.5411 62.2429 34.5155 59.7089C33.564 57.3583 32.9132 54.8887 32.0355 52.5084C31.2516 50.381 30.1768 48.4073 28.5497 46.7857C27.6524 45.8931 26.1782 46.0666 25.7838 47.2568C25.3252 48.6304 24.9998 50.1082 24.9555 51.5513C24.8322 55.4193 24.8864 59.2973 24.8667 63.1703C24.8667 63.5124 24.8667 63.8546 24.8667 64.3009Z" fill="#2F3A50"/>
<path d="M36.0736 64.3022H26.0747V62.507C26.6368 62.1847 27.258 61.9119 27.7757 61.5103C28.9146 60.6325 29.2105 59.3332 29.2548 57.9844C29.3239 55.7528 29.3337 53.5213 29.3682 51.2897C29.3682 50.9823 29.3682 50.6748 29.5802 50.293C29.9599 51.012 30.3247 51.741 30.729 52.4452C31.9814 54.6371 32.0208 57.1166 32.4349 59.5068C32.6322 60.6474 33.2337 61.5202 34.2247 62.2144C34.9297 62.7103 35.4129 63.5335 36.0736 64.2972V64.3022Z" fill="#2F3A50"/>
<path d="M57.9597 58.2863C49.0257 43.9449 40.0968 29.6084 31.1382 15.2223C32.6124 14.8504 32.7406 14.9396 33.4308 16.0653C35.2403 19.0258 37.0793 21.9665 38.9036 24.9171C41.285 28.7703 43.6516 32.6334 46.0379 36.4865C47.6551 39.09 49.3117 41.6687 50.9338 44.2722C52.6693 47.0542 54.3802 49.856 56.1108 52.6479C56.5397 53.3372 56.9095 54.086 57.4518 54.6762C58.433 55.7424 58.2111 56.9722 57.9597 58.2913V58.2863Z" fill="#2F3A50"/>
<path d="M16.579 78.3602C16.1401 78.2561 15.6372 78.2015 15.0702 78.2015C14.4392 78.2015 13.9116 78.3156 13.4925 78.5387C13.0734 78.7619 12.8614 79.0396 12.8614 79.3718C12.8614 79.7289 13.0636 80.0413 13.4728 80.3041C13.882 80.567 14.5328 80.8943 15.4252 81.2761C16.2289 81.6183 16.8797 81.9257 17.3875 82.1985C17.8954 82.4712 18.3293 82.8084 18.6892 83.22C19.0491 83.6316 19.2315 84.1077 19.2315 84.6482C19.2315 85.7194 18.8223 86.5475 17.9989 87.1277C17.1755 87.7079 16.012 88.0005 14.4983 88.0005C13.8426 88.0005 13.1671 87.8765 12.4768 87.6336C11.7866 87.3906 11.1851 87.0633 10.6723 86.6517L11.2245 85.8384C11.7126 86.2351 12.2451 86.5475 12.822 86.7707C13.3988 86.9938 13.9609 87.1079 14.4983 87.1079C15.1294 87.1079 15.6274 86.9839 15.9873 86.7409C16.3472 86.4979 16.5297 86.1607 16.5297 85.7392C16.5297 85.2631 16.3127 84.8714 15.8788 84.559C15.445 84.2466 14.7744 83.8994 13.8672 83.5176C13.1326 83.2002 12.5409 82.9126 12.0923 82.6547C11.6436 82.3968 11.264 82.0745 10.9484 81.6827C10.6329 81.291 10.4751 80.8248 10.4751 80.2843C10.4751 79.3173 10.8646 78.5784 11.6485 78.0627C12.4325 77.5469 13.5517 77.2891 15.0111 77.2891C15.6175 77.2891 16.1993 77.3535 16.7663 77.4874C17.3333 77.6213 17.8165 77.8048 18.2257 78.0428L17.8707 78.8561C17.4516 78.633 17.0178 78.4643 16.579 78.3602Z" fill="#2F3A50"/>
<path d="M21.3218 73.0832C21.6225 72.7807 21.9972 72.627 22.4459 72.627C22.8946 72.627 23.2693 72.7807 23.57 73.0832C23.8708 73.3857 24.0236 73.7626 24.0236 74.2138C24.0236 74.6651 23.8708 75.042 23.57 75.3445C23.2693 75.647 22.8946 75.8007 22.4459 75.8007C21.9972 75.8007 21.6225 75.647 21.3218 75.3445C21.021 75.042 20.8682 74.6651 20.8682 74.2138C20.8682 73.7626 21.021 73.3857 21.3218 73.0832ZM24.1617 87.7023H21.6768C21.4253 87.7023 21.2577 87.6478 21.164 87.5437C21.0703 87.4395 21.0259 87.2461 21.0259 86.9684V77.3876H24.1617V87.7023Z" fill="#2F3A50"/>
<path d="M27.3767 78.6577C28.3381 77.7453 29.6989 77.2891 31.4591 77.2891C33.2192 77.2891 34.58 77.7503 35.5415 78.6776C36.5029 79.6049 36.9811 80.924 36.9811 82.6448V82.863H29.0925C29.1073 83.592 29.1467 84.2713 29.2207 84.9061C29.2946 85.5409 29.3834 85.9425 29.4869 86.1161C29.6989 86.488 29.9652 86.7459 30.2955 86.8996C30.6258 87.0534 31.0597 87.1277 31.5971 87.1277C32.4895 87.1277 33.2833 86.9988 33.9736 86.7409C34.6639 86.4831 35.2802 86.0913 35.8176 85.5607L36.4684 86.2351C35.8619 86.855 35.1618 87.3063 34.368 87.584C33.5742 87.8617 32.6029 88.0005 31.4591 88.0005C29.6447 88.0005 28.2691 87.5393 27.3373 86.6219C26.4054 85.7045 25.937 84.3457 25.937 82.5456C25.937 80.8645 26.4153 79.5702 27.3767 78.6577ZM33.2538 79.0644C32.884 78.4743 32.2874 78.1817 31.4591 78.1817C30.6308 78.1817 29.9947 78.4743 29.6348 79.0644C29.2749 79.6545 29.0925 80.6265 29.0925 81.9902H33.8257C33.8109 80.6265 33.6235 79.6545 33.2538 79.0644Z" fill="#2F3A50"/>
<path d="M41.8916 79.6495V87.703H39.525C39.2242 87.703 39.0172 87.6534 38.9136 87.5542C38.8101 87.455 38.7559 87.2616 38.7559 86.9691V77.3882H41.0239C41.2359 77.3882 41.4035 77.4428 41.5366 77.5469C41.6697 77.6511 41.7486 77.8048 41.7733 78.0032C42.1283 77.78 42.5079 77.6015 42.9073 77.4775C43.3066 77.3535 43.7011 77.2891 44.0807 77.2891C45.6831 77.2891 46.9058 77.6015 47.7391 78.2214C48.5723 78.8412 48.9914 79.7537 48.9914 80.9587V87.703H46.6051C46.3043 87.703 46.0973 87.6534 45.9937 87.5542C45.8902 87.455 45.8359 87.2616 45.8359 86.9691V81.653C45.8359 79.3371 45.1851 78.1817 43.8835 78.1817C43.1982 78.1817 42.5227 78.4247 41.8522 78.9156C41.8768 79.3371 41.8916 79.5851 41.8916 79.6495Z" fill="#2F3A50"/>
<path d="M54.8682 79.6495V87.703H52.5016C52.2008 87.703 51.9937 87.6534 51.8902 87.5542C51.7867 87.455 51.7324 87.2616 51.7324 86.9691V77.3882H54.0004C54.2124 77.3882 54.3801 77.4428 54.5132 77.5469C54.6463 77.6511 54.7252 77.8048 54.7498 78.0032C55.1048 77.78 55.4845 77.6015 55.8838 77.4775C56.2832 77.3535 56.6776 77.2891 57.0573 77.2891C58.6597 77.2891 59.8824 77.6015 60.7156 78.2214C61.5489 78.8412 61.968 79.7537 61.968 80.9587V87.703H59.5816C59.2809 87.703 59.0738 87.6534 58.9703 87.5542C58.8667 87.455 58.8125 87.2616 58.8125 86.9691V81.653C58.8125 79.3371 58.1617 78.1817 56.8601 78.1817C56.1747 78.1817 55.4993 78.4247 54.8287 78.9156C54.8534 79.3371 54.8682 79.5851 54.8682 79.6495Z" fill="#2F3A50"/>
<path d="M71.7109 87.5245C71.5777 87.4054 71.4989 87.2517 71.4742 87.0682C71.1833 87.3608 70.7839 87.5889 70.2712 87.7526C69.7584 87.9162 69.2111 88.0005 68.6343 88.0005C67.6482 88.0005 66.7657 87.8468 65.9916 87.5344C65.2175 87.222 64.6111 86.7905 64.1772 86.2351C63.7433 85.6797 63.5264 85.0499 63.5264 84.3507C63.5264 83.6515 63.7532 83.0366 64.2068 82.5059C64.6604 81.9753 65.3013 81.5687 66.1296 81.2761C66.9579 80.9835 67.9243 80.8397 69.0287 80.8397C69.8422 80.8397 70.6311 81.0034 71.3953 81.3356V80.4232C71.3953 79.7339 71.1636 79.1884 70.7051 78.7867C70.2465 78.385 69.6204 78.1817 68.8315 78.1817C68.3039 78.1817 67.806 78.2461 67.3327 78.38C66.8593 78.5139 66.3712 78.7222 65.8732 79.0148L65.5774 78.1618C66.5882 77.5816 67.6729 77.2891 68.8315 77.2891C70.212 77.2891 71.3214 77.4626 72.1546 77.8147C72.9878 78.1668 73.5992 78.7222 73.9789 79.4909C74.3585 80.2595 74.5508 81.2761 74.5508 82.5456V87.703H72.1842C72.0018 87.703 71.844 87.6435 71.7109 87.5245ZM67.2143 86.4732C67.5841 86.9095 68.1856 87.1277 69.0287 87.1277C69.4626 87.1277 69.8866 87.0484 70.3008 86.8897C70.7149 86.731 71.0946 86.5079 71.4348 86.2153C71.4101 84.7077 71.3953 83.3936 71.3953 82.2679C70.6705 81.9109 69.8817 81.7323 69.0287 81.7323C68.1758 81.7323 67.5989 81.9406 67.2242 82.3572C66.8495 82.7737 66.6621 83.4333 66.6621 84.3309C66.6621 85.3227 66.8445 86.0368 67.2143 86.4732Z" fill="#2F3A50"/>
</g>
<defs>
<clipPath id="clip0_89_480">
<rect width="64.0757" height="75.4811" fill="white" transform="translate(10.4751 12.5195)"/>
</clipPath>
</defs>
</svg>
