<svg width="68" height="80" viewBox="0 0 68 80" fill="none" xmlns="http://www.w3.org/2000/svg">
<g clip-path="url(#clip0_28_24)">
<path d="M42.9799 11.416V10.0355H52.3043V11.3248C51.7718 11.5073 51.2512 11.7017 50.7148 11.8683C49.3264 12.3007 49.0108 13.4592 48.8333 14.685C48.7308 15.4031 48.711 16.141 48.711 16.867C48.711 28.2013 48.7268 39.5356 48.7347 50.8739C48.7347 51.0207 48.7347 51.1714 48.7347 51.3103C47.2201 51.6792 46.9085 51.5364 46.1591 50.3304C44.5222 47.6922 42.8616 45.0738 41.2207 42.4396C38.9883 38.8493 36.7755 35.251 34.5469 31.6607C33.2137 29.5145 31.8569 27.3841 30.5198 25.2418C29.159 23.0558 27.8179 20.858 26.461 18.6721C26.2678 18.3587 26.0351 18.0691 25.6682 17.8072V28.2172C25.617 28.233 25.5657 28.2489 25.5105 28.2648C24.8518 27.3404 24.1694 26.4359 23.5541 25.4838C23.4121 25.2656 23.4791 24.8966 23.4791 24.5951C23.4594 21.4213 23.5186 18.2476 23.4042 15.0778C23.3095 12.5189 22.2603 12.1659 20.154 11.5589C19.9411 11.4994 19.7202 11.4716 19.4717 11.424V10.0672C19.7281 10.0513 19.9687 10.0156 20.2093 10.0156C22.3905 10.0156 24.5717 10.0275 26.7529 10.0196C27.2302 10.0196 27.5418 10.1108 27.8337 10.5869C30.149 14.3875 32.5077 18.1643 34.8625 21.945C36.2272 24.131 37.6275 26.2931 38.9843 28.483C40.8973 31.5615 42.7827 34.6599 44.6957 37.7385C45.2282 38.5954 45.8119 39.4206 46.5219 40.2021C46.5338 39.9363 46.5574 39.6745 46.5574 39.4087C46.5574 31.6766 46.5653 23.9405 46.5456 16.2084C46.5456 15.4348 46.4194 14.6533 46.2734 13.8956C45.9934 12.4475 44.9363 11.8207 43.611 11.5232C43.4177 11.4795 43.2166 11.4557 42.976 11.4121L42.9799 11.416ZM46.3681 46.629C46.5693 45.5737 46.7468 44.5898 45.9618 43.7369C45.528 43.2648 45.2321 42.6658 44.889 42.1143C43.5045 39.8847 42.1358 37.6433 40.7474 35.4137C39.4497 33.3309 38.1244 31.2719 36.8307 29.1852C34.9177 26.1066 33.0244 23.0162 31.1232 19.9297C29.6638 17.5692 28.1926 15.2166 26.745 12.8482C26.1968 11.9477 26.0903 11.8762 24.9109 12.1738C32.0778 23.6787 39.221 35.1519 46.3681 46.625V46.629Z" fill="#2F3A50"/>
<path d="M19.8936 51.4411H17.9924C17.9766 51.1396 17.9569 50.85 17.949 50.5604C17.8622 46.7836 17.7912 43.0068 17.6847 39.2301C17.6098 36.5165 16.9432 33.914 16.1622 31.3353C15.0854 27.7886 16.0005 24.7577 18.5249 22.1433C18.8168 21.8418 19.1165 21.5442 19.4202 21.2507C19.4873 21.1872 19.5859 21.1555 19.7161 21.0801C20.7732 23.992 22.8597 26.2017 24.5755 28.6495C26.5082 31.4067 27.7586 34.4773 28.8235 37.6511C29.5059 39.6903 30.2041 41.7334 31.5609 43.4789C32.3379 44.4787 34.3259 45.1928 35.454 43.9907C35.5841 43.8519 35.9628 43.8003 36.1561 43.8796C38.9131 45.0063 41.4927 46.4424 43.7292 48.4379C44.025 48.7038 44.238 49.1203 44.3642 49.5091C44.6482 50.3858 44.3051 51.0365 43.4018 51.1952C42.2698 51.3935 41.118 51.5522 39.9702 51.572C37.367 51.6157 34.7519 51.6792 32.1565 51.5205C29.8412 51.3777 28.4331 49.7947 27.6126 47.7675C26.8514 45.887 26.3307 43.9114 25.6286 42.0071C25.0015 40.3052 24.1416 38.7262 22.84 37.4289C22.1221 36.7148 20.9428 36.8537 20.6272 37.8058C20.2604 38.9047 20.0001 40.087 19.9646 41.2414C19.866 44.3359 19.9093 47.4382 19.8936 50.5366C19.8936 50.8103 19.8936 51.0841 19.8936 51.4411Z" fill="#2F3A50"/>
<path d="M28.859 51.4417H20.8599V50.0056C21.3095 49.7477 21.8065 49.5295 22.2207 49.2082C23.1318 48.506 23.3685 47.4666 23.404 46.3875C23.4592 44.6023 23.4671 42.817 23.4947 41.0318C23.4947 40.7858 23.4947 40.5399 23.6643 40.2344C23.968 40.8096 24.2599 41.3928 24.5833 41.9561C25.5852 43.7097 25.6167 45.6933 25.9481 47.6054C26.1058 48.5179 26.587 49.2161 27.3798 49.7715C27.9439 50.1683 28.3304 50.8268 28.859 51.4378V51.4417Z" fill="#2F3A50"/>
<path d="M46.3678 46.6283C39.2207 35.1551 32.0775 23.6859 24.9106 12.177C26.09 11.8795 26.1926 11.9509 26.7448 12.8515C28.1923 15.2199 29.6636 17.5724 31.123 19.9329C33.0281 23.0155 34.9214 26.1059 36.8304 29.1884C38.1242 31.2712 39.4495 33.3342 40.7471 35.4169C42.1356 37.6426 43.5042 39.884 44.8887 42.1176C45.2319 42.669 45.5277 43.2681 45.9616 43.7402C46.7465 44.5931 46.569 45.577 46.3678 46.6322V46.6283Z" fill="#2F3A50"/>
<path d="M13.2635 62.687C12.9124 62.6037 12.5101 62.56 12.0565 62.56C11.5516 62.56 11.1296 62.6513 10.7943 62.8298C10.459 63.0083 10.2894 63.2305 10.2894 63.4963C10.2894 63.7819 10.4511 64.0319 10.7785 64.2421C11.1059 64.4524 11.6266 64.7142 12.3405 65.0197C12.9834 65.2934 13.5041 65.5394 13.9103 65.7576C14.3166 65.9758 14.6637 66.2456 14.9516 66.5749C15.2396 66.9041 15.3855 67.285 15.3855 67.7174C15.3855 68.5743 15.0581 69.2369 14.3994 69.701C13.7407 70.1652 12.8099 70.3992 11.5989 70.3992C11.0744 70.3992 10.534 70.3001 9.98177 70.1057C9.42956 69.9113 8.94836 69.6494 8.53814 69.3202L8.97991 68.6695C9.3704 68.9869 9.79639 69.2369 10.2579 69.4154C10.7194 69.5939 11.169 69.6852 11.5989 69.6852C12.1038 69.6852 12.5022 69.586 12.7901 69.3916C13.0781 69.1972 13.224 68.9274 13.224 68.5902C13.224 68.2093 13.0505 67.8959 12.7034 67.646C12.3563 67.3961 11.8198 67.1184 11.0941 66.8129C10.5064 66.559 10.033 66.3289 9.67411 66.1226C9.31518 65.9163 9.01146 65.6584 8.75903 65.345C8.50659 65.0316 8.38037 64.6587 8.38037 64.2263C8.38037 63.4527 8.69197 62.8616 9.31912 62.449C9.94627 62.0364 10.8416 61.8301 12.0092 61.8301C12.4943 61.8301 12.9597 61.8816 13.4133 61.9888C13.8669 62.0959 14.2535 62.2427 14.5809 62.4331L14.2969 63.0837C13.9616 62.9052 13.6145 62.7703 13.2635 62.687Z" fill="#2F3A50"/>
<path d="M17.0577 58.4665C17.2983 58.2245 17.5981 58.1016 17.957 58.1016C18.3159 58.1016 18.6157 58.2245 18.8563 58.4665C19.0969 58.7085 19.2192 59.0101 19.2192 59.3711C19.2192 59.7321 19.0969 60.0336 18.8563 60.2756C18.6157 60.5176 18.3159 60.6406 17.957 60.6406C17.5981 60.6406 17.2983 60.5176 17.0577 60.2756C16.8171 60.0336 16.6948 59.7321 16.6948 59.3711C16.6948 59.0101 16.8171 58.7085 17.0577 58.4665ZM19.3296 70.1619H17.3417C17.1405 70.1619 17.0064 70.1182 16.9315 70.0349C16.8565 69.9516 16.821 69.7969 16.821 69.5747V61.9101H19.3296V70.1619Z" fill="#2F3A50"/>
<path d="M21.9017 62.925C22.6709 62.1951 23.7595 61.8301 25.1677 61.8301C26.5758 61.8301 27.6644 62.199 28.4336 62.9409C29.2027 63.6828 29.5853 64.738 29.5853 66.1147V66.2892H23.2744C23.2862 66.8724 23.3178 67.4159 23.3769 67.9237C23.4361 68.4315 23.5071 68.7529 23.5899 68.8917C23.7595 69.1893 23.9725 69.3955 24.2368 69.5185C24.5011 69.6415 24.8482 69.701 25.2781 69.701C25.992 69.701 26.6271 69.5979 27.1793 69.3916C27.7315 69.1853 28.2245 68.8719 28.6544 68.4474L29.1751 68.9869C28.6899 69.4828 28.1299 69.8438 27.4948 70.066C26.8598 70.2882 26.0827 70.3992 25.1677 70.3992C23.7161 70.3992 22.6157 70.0303 21.8702 69.2964C21.1247 68.5624 20.75 67.4754 20.75 66.0353C20.75 64.6904 21.1326 63.655 21.9017 62.925ZM26.6034 63.2503C26.3076 62.7782 25.8303 62.5442 25.1677 62.5442C24.505 62.5442 23.9962 62.7782 23.7083 63.2503C23.4203 63.7224 23.2744 64.5 23.2744 65.591H27.0609C27.0491 64.5 26.8992 63.7224 26.6034 63.2503Z" fill="#2F3A50"/>
<path d="M33.5135 63.7185V70.1612H31.6202C31.3796 70.1612 31.2139 70.1215 31.1311 70.0422C31.0483 69.9629 31.0049 69.8081 31.0049 69.5741V61.9094H32.8193C32.9889 61.9094 33.123 61.9531 33.2295 62.0364C33.336 62.1197 33.3991 62.2427 33.4188 62.4014C33.7028 62.2228 34.0065 62.08 34.326 61.9808C34.6455 61.8817 34.9611 61.8301 35.2648 61.8301C36.5467 61.8301 37.5249 62.08 38.1915 62.5759C38.8581 63.0718 39.1933 63.8018 39.1933 64.7658V70.1612H37.2843C37.0437 70.1612 36.878 70.1215 36.7952 70.0422C36.7123 69.9629 36.6689 69.8081 36.6689 69.5741V65.3212C36.6689 63.4685 36.1483 62.5442 35.107 62.5442C34.5587 62.5442 34.0184 62.7386 33.4819 63.1313C33.5016 63.4685 33.5135 63.6669 33.5135 63.7185Z" fill="#2F3A50"/>
<path d="M43.8948 63.7185V70.1612H42.0015C41.7609 70.1612 41.5953 70.1215 41.5124 70.0422C41.4296 69.9629 41.3862 69.8081 41.3862 69.5741V61.9094H43.2006C43.3702 61.9094 43.5043 61.9531 43.6108 62.0364C43.7173 62.1197 43.7804 62.2427 43.8002 62.4014C44.0842 62.2228 44.3879 62.08 44.7074 61.9808C45.0269 61.8817 45.3424 61.8301 45.6461 61.8301C46.928 61.8301 47.9062 62.08 48.5728 62.5759C49.2394 63.0718 49.5747 63.8018 49.5747 64.7658V70.1612H47.6656C47.425 70.1612 47.2593 70.1215 47.1765 70.0422C47.0937 69.9629 47.0503 69.8081 47.0503 69.5741V65.3212C47.0503 63.4685 46.5296 62.5442 45.4883 62.5442C44.9401 62.5442 44.3997 62.7386 43.8633 63.1313C43.883 63.4685 43.8948 63.6669 43.8948 63.7185Z" fill="#2F3A50"/>
<path d="M57.3689 70.0184C57.2624 69.9232 57.1993 69.8002 57.1796 69.6534C56.9468 69.8875 56.6274 70.07 56.2171 70.2009C55.8069 70.3318 55.3691 70.3992 54.9076 70.3992C54.1188 70.3992 53.4127 70.2763 52.7935 70.0263C52.1742 69.7764 51.689 69.4312 51.3419 68.9869C50.9948 68.5426 50.8213 68.0388 50.8213 67.4794C50.8213 66.92 51.0027 66.4281 51.3656 66.0036C51.7285 65.5791 52.2412 65.2538 52.9039 65.0197C53.5665 64.7856 54.3396 64.6706 55.2232 64.6706C55.874 64.6706 56.5051 64.8015 57.1164 65.0673V64.3374C57.1164 63.7859 56.9311 63.3495 56.5642 63.0282C56.1974 62.7068 55.6965 62.5442 55.0654 62.5442C54.6434 62.5442 54.245 62.5957 53.8663 62.7029C53.4877 62.81 53.0972 62.9766 52.6988 63.2107L52.4621 62.5283C53.2707 62.0641 54.1385 61.8301 55.0654 61.8301C56.1698 61.8301 57.0573 61.9689 57.7239 62.2506C58.3905 62.5323 58.8796 62.9766 59.1833 63.5915C59.487 64.2064 59.6408 65.0197 59.6408 66.0353V70.1612H57.7475C57.6016 70.1612 57.4754 70.1136 57.3689 70.0184ZM53.7717 69.1773C54.0675 69.5265 54.5487 69.701 55.2232 69.701C55.5703 69.701 55.9095 69.6375 56.2408 69.5106C56.5721 69.3836 56.8758 69.2051 57.148 68.9711C57.1283 67.765 57.1164 66.7137 57.1164 65.8132C56.5366 65.5275 55.9055 65.3847 55.2232 65.3847C54.5408 65.3847 54.0793 65.5513 53.7795 65.8846C53.4798 66.2178 53.3299 66.7454 53.3299 67.4635C53.3299 68.257 53.4758 68.8282 53.7717 69.1773Z" fill="#2F3A50"/>
</g>
<defs>
<clipPath id="clip0_28_24">
<rect width="51.2606" height="60.3849" fill="white" transform="translate(8.38037 10.0156)"/>
</clipPath>
</defs>
</svg>
