<svg width="60" height="70" viewBox="0 0 60 70" fill="none" xmlns="http://www.w3.org/2000/svg">
<g clip-path="url(#clip0_624_1964)">
<path d="M37.9237 9.98856V8.78054H46.1511V9.90871C45.6813 10.0684 45.2219 10.2385 44.7486 10.3843C43.5235 10.7627 43.2451 11.7763 43.0885 12.8489C42.998 13.4772 42.9806 14.1229 42.9806 14.7581C42.9806 24.6757 42.9945 34.5932 43.0015 44.5142C43.0015 44.6426 43.0015 44.7745 43.0015 44.896C41.665 45.2189 41.3901 45.0939 40.7288 44.0386C39.2845 41.7302 37.8193 39.4391 36.3715 37.1342C34.4017 33.9926 32.4492 30.8442 30.4828 27.7026C29.3065 25.8247 28.1093 23.9606 26.9295 22.0861C25.7288 20.1734 24.5455 18.2503 23.3482 16.3376C23.1777 16.0633 22.9724 15.8099 22.6487 15.5808V24.6895C22.6035 24.7034 22.5582 24.7173 22.5095 24.7312C21.9283 23.9224 21.3262 23.1309 20.7833 22.2978C20.658 22.1069 20.7171 21.7841 20.7171 21.5202C20.6997 18.7432 20.7519 15.9661 20.651 13.1926C20.5675 10.9536 19.6417 10.6446 17.7832 10.1135C17.5953 10.0615 17.4004 10.0372 17.1812 9.9955V8.80831C17.4074 8.79443 17.6197 8.76318 17.832 8.76318C19.7566 8.76318 21.6812 8.7736 23.6058 8.76665C24.0269 8.76665 24.3018 8.84649 24.5594 9.26305C26.6023 12.5886 28.6835 15.8932 30.7613 19.2014C31.9654 21.1141 33.201 23.006 34.3982 24.9221C36.0861 27.6159 37.7497 30.3269 39.4376 33.0207C39.9075 33.7705 40.4226 34.4925 41.049 35.1764C41.0595 34.9438 41.0803 34.7147 41.0803 34.4821C41.0803 27.7165 41.0873 20.9475 41.0699 14.1819C41.0699 13.505 40.9585 12.8211 40.8298 12.1581C40.5827 10.8911 39.6499 10.3426 38.4806 10.0823C38.31 10.0441 38.1325 10.0233 37.9202 9.98508L37.9237 9.98856ZM40.9133 40.7999C41.0908 39.8765 41.2474 39.0156 40.5548 38.2693C40.172 37.8562 39.911 37.332 39.6082 36.8495C38.3866 34.8987 37.1789 32.9374 35.9539 30.9865C34.8088 29.1641 33.6395 27.3624 32.4979 25.5365C30.81 22.8428 29.1394 20.1387 27.4619 17.438C26.1742 15.3726 24.8761 13.3141 23.5988 11.2417C23.1151 10.4537 23.0211 10.3912 21.9805 10.6516C28.3042 20.7184 34.607 30.7574 40.9133 40.7964V40.7999Z" fill="#2F3A50"/>
<path d="M17.5537 45.0107H15.8762C15.8622 44.7469 15.8448 44.4935 15.8379 44.2401C15.7613 40.9354 15.6987 37.6307 15.6047 34.3261C15.5386 31.9517 14.9504 29.6745 14.2613 27.4182C13.3112 24.3148 14.1186 21.6627 16.346 19.3751C16.6035 19.1113 16.868 18.851 17.136 18.5941C17.1952 18.5385 17.2822 18.5108 17.3971 18.4448C18.3298 20.9928 20.1708 22.9263 21.6848 25.0681C23.3901 27.4806 24.4934 30.1674 25.4331 32.9445C26.0351 34.7287 26.6512 36.5165 27.8484 38.0438C28.534 38.9186 30.2881 39.5434 31.2834 38.4916C31.3983 38.3701 31.7324 38.325 31.9029 38.3944C34.3356 39.3803 36.6118 40.6369 38.5851 42.383C38.8461 42.6155 39.0341 42.98 39.1454 43.3202C39.396 44.0874 39.0932 44.6567 38.2962 44.7955C37.2974 44.9691 36.2811 45.1079 35.2684 45.1253C32.9714 45.1635 30.6639 45.219 28.3739 45.0802C26.331 44.9552 25.0885 43.5701 24.3646 41.7963C23.6929 40.1509 23.2335 38.4222 22.614 36.756C22.0606 35.2668 21.3019 33.8852 20.1534 32.7501C19.52 32.1252 18.4794 32.2467 18.201 33.0799C17.8773 34.0414 17.6476 35.0759 17.6163 36.086C17.5293 38.7936 17.5676 41.5082 17.5537 44.2193C17.5537 44.4588 17.5537 44.6983 17.5537 45.0107Z" fill="#2F3A50"/>
<path d="M25.4643 45.0105H18.4062V43.7539C18.803 43.5283 19.2415 43.3374 19.607 43.0562C20.4109 42.4418 20.6197 41.5323 20.651 40.5881C20.6998 39.026 20.7067 37.4639 20.7311 35.9018C20.7311 35.6866 20.7311 35.4714 20.8807 35.2041C21.1487 35.7074 21.4063 36.2177 21.6916 36.7106C22.5756 38.245 22.6035 39.9806 22.8958 41.6538C23.035 42.4522 23.4596 43.0631 24.1592 43.5491C24.6569 43.8963 24.9979 44.4725 25.4643 45.0071V45.0105Z" fill="#2F3A50"/>
<path d="M40.9133 40.7997C34.607 30.7607 28.3042 20.7252 21.9805 10.6549C23.0211 10.3946 23.1116 10.457 23.5988 11.245C24.8761 13.3174 26.1742 15.3759 27.4619 17.4413C29.1429 20.1385 30.8135 22.8427 32.4979 25.5399C33.6395 27.3623 34.8088 29.1674 35.9539 30.9898C37.1789 32.9372 38.3866 34.8985 39.6082 36.8529C39.911 37.3354 40.172 37.8595 40.5548 38.2726C41.2474 39.019 41.0908 39.8798 40.9133 40.8032V40.7997Z" fill="#2F3A50"/>
<path d="M11.7031 54.8519C11.3934 54.779 11.0384 54.7408 10.6382 54.7408C10.1927 54.7408 9.8203 54.8206 9.52447 54.9768C9.22865 55.133 9.07899 55.3274 9.07899 55.56C9.07899 55.8099 9.22169 56.0286 9.51055 56.2126C9.79942 56.3966 10.2588 56.6257 10.8887 56.893C11.456 57.1325 11.9154 57.3477 12.2739 57.5386C12.6324 57.7296 12.9386 57.9656 13.1927 58.2537C13.4468 58.5419 13.5755 58.8751 13.5755 59.2535C13.5755 60.0033 13.2867 60.583 12.7055 60.9891C12.1243 61.3953 11.3029 61.6001 10.2345 61.6001C9.77157 61.6001 9.29477 61.5133 8.80753 61.3432C8.32029 61.1731 7.89569 60.944 7.53374 60.6559L7.92354 60.0866C8.26809 60.3643 8.64396 60.583 9.05115 60.7392C9.45835 60.8954 9.8551 60.9752 10.2345 60.9752C10.6799 60.9752 11.0314 60.8885 11.2855 60.7184C11.5396 60.5483 11.6683 60.3122 11.6683 60.0172C11.6683 59.6839 11.5152 59.4097 11.2089 59.191C10.9027 58.9723 10.4293 58.7293 9.78898 58.462C9.27041 58.2398 8.85278 58.0385 8.53607 57.858C8.21936 57.6775 7.95138 57.4519 7.72864 57.1776C7.5059 56.9034 7.39453 56.5771 7.39453 56.1987C7.39453 55.5218 7.66947 55.0046 8.22284 54.6436C8.77621 54.2826 9.56624 54.1021 10.5964 54.1021C11.0245 54.1021 11.4352 54.1472 11.8354 54.2409C12.2356 54.3346 12.5767 54.4631 12.8656 54.6297L12.615 55.199C12.3192 55.0428 12.0129 54.9248 11.7031 54.8519Z" fill="#2F3A50"/>
<path d="M15.0511 51.1582C15.2634 50.9465 15.5279 50.8389 15.8447 50.8389C16.1614 50.8389 16.4259 50.9465 16.6382 51.1582C16.8505 51.37 16.9583 51.6338 16.9583 51.9497C16.9583 52.2656 16.8505 52.5294 16.6382 52.7411C16.4259 52.9529 16.1614 53.0605 15.8447 53.0605C15.5279 53.0605 15.2634 52.9529 15.0511 52.7411C14.8388 52.5294 14.731 52.2656 14.731 51.9497C14.731 51.6338 14.8388 51.37 15.0511 51.1582ZM17.0558 61.3916H15.3017C15.1242 61.3916 15.0059 61.3535 14.9398 61.2806C14.8736 61.2077 14.8423 61.0723 14.8423 60.8779V54.1713H17.0558V61.3916Z" fill="#2F3A50"/>
<path d="M19.3248 55.0601C20.0035 54.4214 20.9641 54.1021 22.2065 54.1021C23.449 54.1021 24.4096 54.4249 25.0882 55.074C25.7669 55.7232 26.1045 56.6465 26.1045 57.8511V58.0038H20.536C20.5464 58.5141 20.5743 58.9897 20.6265 59.434C20.6787 59.8783 20.7413 60.1595 20.8144 60.281C20.9641 60.5413 21.152 60.7218 21.3852 60.8294C21.6184 60.9371 21.9246 60.9891 22.304 60.9891C22.9339 60.9891 23.4942 60.8989 23.9815 60.7184C24.4687 60.5379 24.9038 60.2636 25.2831 59.8922L25.7425 60.3643C25.3144 60.7982 24.8202 61.1141 24.2599 61.3085C23.6996 61.5029 23.014 61.6001 22.2065 61.6001C20.9258 61.6001 19.9548 61.2772 19.297 60.635C18.6392 59.9929 18.3086 59.0417 18.3086 57.7816C18.3086 56.6049 18.6462 55.6989 19.3248 55.0601ZM23.4734 55.3448C23.2123 54.9317 22.7912 54.7269 22.2065 54.7269C21.6218 54.7269 21.1729 54.9317 20.9188 55.3448C20.6648 55.7579 20.536 56.4382 20.536 57.3928H23.8771C23.8666 56.4382 23.7344 55.7579 23.4734 55.3448Z" fill="#2F3A50"/>
<path d="M29.5709 55.7544V61.3918H27.9003C27.688 61.3918 27.5419 61.3571 27.4688 61.2877C27.3957 61.2182 27.3574 61.0829 27.3574 60.878V54.1715H28.9584C29.108 54.1715 29.2263 54.2097 29.3203 54.2826C29.4143 54.3555 29.47 54.4631 29.4874 54.6019C29.7379 54.4457 30.0059 54.3207 30.2878 54.234C30.5697 54.1472 30.8482 54.1021 31.1161 54.1021C32.2472 54.1021 33.1104 54.3207 33.6985 54.7547C34.2867 55.1886 34.5825 55.8273 34.5825 56.6708V61.3918H32.8981C32.6858 61.3918 32.5396 61.3571 32.4665 61.2877C32.3934 61.2182 32.3551 61.0829 32.3551 60.878V57.1568C32.3551 55.5357 31.8957 54.7269 30.9769 54.7269C30.4932 54.7269 30.0164 54.897 29.543 55.2406C29.5604 55.5357 29.5709 55.7093 29.5709 55.7544Z" fill="#2F3A50"/>
<path d="M38.731 55.7544V61.3918H37.0605C36.8482 61.3918 36.702 61.3571 36.6289 61.2877C36.5559 61.2182 36.5176 61.0829 36.5176 60.878V54.1715H38.1185C38.2682 54.1715 38.3865 54.2097 38.4805 54.2826C38.5744 54.3555 38.6301 54.4631 38.6475 54.6019C38.8981 54.4457 39.1661 54.3207 39.448 54.234C39.7299 54.1472 40.0083 54.1021 40.2763 54.1021C41.4074 54.1021 42.2705 54.3207 42.8587 54.7547C43.4468 55.1886 43.7427 55.8273 43.7427 56.6708V61.3918H42.0582C41.8459 61.3918 41.6997 61.3571 41.6267 61.2877C41.5536 61.2182 41.5153 61.0829 41.5153 60.878V57.1568C41.5153 55.5357 41.0559 54.7269 40.1371 54.7269C39.6533 54.7269 39.1765 54.897 38.7032 55.2406C38.7206 55.5357 38.731 55.7093 38.731 55.7544Z" fill="#2F3A50"/>
<path d="M50.6196 61.2668C50.5256 61.1835 50.4699 61.0759 50.4525 60.9475C50.2472 61.1523 49.9653 61.312 49.6033 61.4265C49.2414 61.5411 48.8551 61.6001 48.4479 61.6001C47.7518 61.6001 47.1288 61.4925 46.5824 61.2738C46.036 61.0551 45.608 60.7531 45.3017 60.3643C44.9954 59.9755 44.8423 59.5346 44.8423 59.0452C44.8423 58.5557 45.0024 58.1253 45.3226 57.7539C45.6428 57.3824 46.0952 57.0978 46.6799 56.893C47.2646 56.6882 47.9467 56.5875 48.7263 56.5875C49.3005 56.5875 49.8574 56.7021 50.3968 56.9346V56.2959C50.3968 55.8134 50.2333 55.4316 49.9096 55.1504C49.5859 54.8692 49.1439 54.7269 48.5871 54.7269C48.2147 54.7269 47.8632 54.772 47.5291 54.8657C47.195 54.9595 46.8504 55.1053 46.4989 55.3101L46.2901 54.713C47.0036 54.3069 47.7692 54.1021 48.5871 54.1021C49.5616 54.1021 50.3446 54.2235 50.9328 54.47C51.521 54.7165 51.9525 55.1053 52.2205 55.6433C52.4885 56.1814 52.6242 56.893 52.6242 57.7816V61.3918H50.9537C50.8249 61.3918 50.7135 61.3501 50.6196 61.2668ZM47.4455 60.5309C47.7066 60.8364 48.1312 60.9891 48.7263 60.9891C49.0326 60.9891 49.3319 60.9336 49.6242 60.8225C49.9166 60.7114 50.1845 60.5552 50.4247 60.3504C50.4073 59.2951 50.3968 58.3752 50.3968 57.5872C49.8852 57.3373 49.3284 57.2123 48.7263 57.2123C48.1242 57.2123 47.717 57.3581 47.4525 57.6497C47.188 57.9413 47.0558 58.403 47.0558 59.0313C47.0558 59.7256 47.1845 60.2254 47.4455 60.5309Z" fill="#2F3A50"/>
</g>
<defs>
<clipPath id="clip0_624_1964">
<rect width="45.2299" height="52.8368" fill="white" transform="translate(7.39453 8.76318)"/>
</clipPath>
</defs>
</svg>
